<?xml version="1.0" encoding="utf-8"?><svg xmlns="http://www.w3.org/2000/svg" height="30" width="30" viewBox="0 0 30 30"><g><path transform="rotate(0,15,15) translate(0.000471174913538874,0) scale(0.937500391155645,0.937500391155645)" fill="#F8A147" d="M10.422978,15.528432C10.101994,15.528432,9.7810088,15.650438,9.5369902,15.895426L2.3670052,23.072241C2.1300054,23.309235 2.0000005,23.624228 2.0000005,23.959181 2.0000005,24.294194 2.1300054,24.609188 2.3670052,24.846182L7.1469751,29.63103C7.6199976,30.105016,8.4459868,30.105016,8.9190093,29.63103L16.089971,22.454215C16.578008,21.964237,16.578008,21.169275,16.089971,20.679298L14.404659,18.992955 11.260395,22.135977C11.064392,22.330974 10.809388,22.428973 10.553383,22.428973 10.297379,22.428973 10.041374,22.330974 9.8453713,22.134976 9.4553643,21.743981 9.4553643,21.109989 9.8463708,20.719993L12.990232,17.577662 11.309025,15.895426C11.065006,15.650438,10.744022,15.528432,10.422978,15.528432z M23.96598,1.971221C23.63198,1.971221,23.316979,2.1012192,23.07998,2.3392153L15.908977,9.5151081C15.420977,10.005101,15.420977,10.800089,15.908977,11.290082L17.593997,12.976135 20.780561,9.791122C21.171567,9.4001265 21.804578,9.4001265 22.194585,9.7921219 22.58459,10.183117 22.58459,10.81711 22.193584,11.207105L19.008214,14.391217 20.689979,16.074011C21.178979,16.563003,21.97298,16.563003,22.461978,16.074011L29.631982,8.8971176C29.868981,8.660121 29.998981,8.3451257 29.998981,8.0101309 29.998981,7.6751356 29.868981,7.3601403 29.631982,7.1231441L24.851979,2.3392153C24.61498,2.1012192,24.299979,1.971221,23.96598,1.971221z M23.96573,0C24.80873,0,25.65198,0.30774593,26.26698,0.92323589L31.045981,5.7081652C31.660981,6.322156 31.998982,7.1401439 31.998982,8.0101309 31.998982,8.8801179 31.660981,9.6981056 31.045981,10.313096L23.875979,17.48999C23.261979,18.10498 22.44498,18.443975 21.575978,18.443975 20.706979,18.443975 19.889978,18.10498 19.275977,17.48999L17.593122,15.805751 15.819613,17.57856 17.503974,19.264296C18.117988,19.87927 18.456,20.697303 18.456,21.567275 18.456,22.437247 18.117988,23.254182 17.503974,23.869217L10.333012,31.046031C9.7189971,31.661006 8.9019805,31.999986 8.0330229,31.999986 7.1640039,31.999986 6.3469868,31.661006 5.7319966,31.046031L0.95300299,26.26216C0.33801264,25.647125 -1.7839562E-07,24.829153 5.6843419E-14,23.959181 -1.7839562E-07,23.089209 0.33801264,22.271236 0.95300299,21.656262L8.1229888,14.479448C8.7370024,13.864473 9.5800048,13.556986 10.423007,13.556986 11.26601,13.556986 12.109014,13.864473 12.723027,14.479448L14.405394,16.163187 16.178989,14.390456 14.494976,12.705061C13.880976,12.09007 13.542975,11.272082 13.542975,10.402095 13.542975,9.5331082 13.880976,8.7151203 14.494976,8.1001291L21.665978,0.92323589C22.279979,0.30774593,23.122729,0,23.96573,0z"/></g></svg>