<?xml version="1.0" encoding="utf-8"?><svg xmlns="http://www.w3.org/2000/svg" height="30" width="30" viewBox="0 0 30 30"><g><path transform="rotate(0,15,15) translate(7.40624964237213,0) scale(0.9375,0.9375)" fill="#CA9866" d="M11.399996,28.200008L11.399996,29.800046 14.2,29.800046 14.2,28.200008z M6.6999985,28.200008L6.6999985,29.800046 9.1999995,29.800046 9.1999995,28.200008z M1.8999944,28.200008L1.8999944,29.800046 4.5000011,29.800046 4.5000011,28.200008z M11.399996,24.100029L11.399996,26.300043 14.2,26.300043 14.2,24.100029z M6.6999985,24.100029L6.6999985,26.300043 9.1999995,26.300043 9.1999995,24.100029z M1.8999944,24.100029L1.8999944,26.300043 4.5000011,26.300043 4.5000011,24.100029z M11.399996,19.999988L11.399996,22.200002 14.2,22.200002 14.2,19.999988z M6.6999985,19.999988L6.6999985,22.200002 9.1999995,22.200002 9.1999995,19.999988z M1.8999944,19.999988L1.8999944,22.200002 4.5000011,22.200002 4.5000011,19.999988z M1.8999944,6.299994L1.8999944,18.199998 14.2,18.199998 14.2,6.299994z M13.899997,0L16.200001,0 16.200001,32 0,32 0,4.1000099 13.899997,4.1000099z"/></g></svg>